<svg width="36" height="37" viewBox="0 0 36 37" fill="none" xmlns="http://www.w3.org/2000/svg">
<path d="M32.0621 16.7646H28.8076C28.6228 16.7646 28.446 16.8449 28.3215 16.9856L19.5264 27.1226V4.49806C19.5264 4.32128 19.3817 4.17664 19.2049 4.17664H16.7942C16.6174 4.17664 16.4728 4.32128 16.4728 4.49806V27.1226L7.6777 16.9856C7.55717 16.8449 7.38038 16.7646 7.19154 16.7646H3.93708C3.66386 16.7646 3.5152 17.09 3.69601 17.2949L17.0313 32.6632C17.1518 32.8023 17.3008 32.9138 17.4683 32.9903C17.6357 33.0667 17.8176 33.1063 18.0016 33.1063C18.1856 33.1063 18.3675 33.0667 18.5349 32.9903C18.7023 32.9138 18.8514 32.8023 18.9719 32.6632L32.3032 17.2949C32.484 17.086 32.3353 16.7646 32.0621 16.7646Z" fill="black" fill-opacity="0.85"/>
</svg>
