<svg width="36" height="37" viewBox="0 0 36 37" fill="none" xmlns="http://www.w3.org/2000/svg">
<path d="M32.3046 19.9707L18.9693 4.60236C18.8488 4.4633 18.6998 4.35177 18.5324 4.27534C18.3649 4.1989 18.1831 4.15934 17.999 4.15934C17.815 4.15934 17.6331 4.1989 17.4657 4.27534C17.2983 4.35177 17.1492 4.4633 17.0287 4.60236L3.69746 19.9707C3.65717 20.017 3.63105 20.0739 3.62221 20.1347C3.61336 20.1954 3.62217 20.2574 3.64757 20.3133C3.67297 20.3692 3.7139 20.4166 3.76549 20.4499C3.81707 20.4832 3.87714 20.5009 3.93853 20.501H7.19299C7.37781 20.501 7.5546 20.4207 7.67915 20.28L16.4742 10.143V32.7675C16.4742 32.9443 16.6189 33.089 16.7957 33.089H19.2064C19.3832 33.089 19.5278 32.9443 19.5278 32.7675V10.143L28.3229 20.28C28.4434 20.4207 28.6202 20.501 28.8091 20.501H32.0635C32.3367 20.501 32.4854 20.1796 32.3046 19.9707Z" fill="black" fill-opacity="0.85"/>
</svg>
