<svg width="36" height="36" viewBox="0 0 36 36" fill="none" xmlns="http://www.w3.org/2000/svg">
<g clip-path="url(#clip0_1_5090)">
<path d="M2.25 3.84979H0.321429C0.144643 3.84979 0 3.99444 0 4.17122V31.8141C0 31.9909 0.144643 32.1355 0.321429 32.1355H2.25C2.42679 32.1355 2.57143 31.9909 2.57143 31.8141V4.17122C2.57143 3.99444 2.42679 3.84979 2.25 3.84979ZM35.7188 3.84979H33.7902C33.6134 3.84979 33.4688 3.99444 33.4688 4.17122V31.8141C33.4688 31.9909 33.6134 32.1355 33.7902 32.1355H35.7188C35.8955 32.1355 36.0402 31.9909 36.0402 31.8141V4.17122C36.0402 3.99444 35.8955 3.84979 35.7188 3.84979ZM5.46429 26.9927H9.96429C10.1411 26.9927 10.2857 26.848 10.2857 26.6712V4.17122C10.2857 3.99444 10.1411 3.84979 9.96429 3.84979H5.46429C5.2875 3.84979 5.14286 3.99444 5.14286 4.17122V26.6712C5.14286 26.848 5.2875 26.9927 5.46429 26.9927ZM18.3616 26.9927H20.2902C20.467 26.9927 20.6116 26.848 20.6116 26.6712V4.17122C20.6116 3.99444 20.467 3.84979 20.2902 3.84979H18.3616C18.1848 3.84979 18.0402 3.99444 18.0402 4.17122V26.6712C18.0402 26.848 18.1848 26.9927 18.3616 26.9927ZM23.4241 26.9927H30.5759C30.7527 26.9927 30.8973 26.848 30.8973 26.6712V4.17122C30.8973 3.99444 30.7527 3.84979 30.5759 3.84979H23.4241C23.2473 3.84979 23.1027 3.99444 23.1027 4.17122V26.6712C23.1027 26.848 23.2473 26.9927 23.4241 26.9927ZM13.1786 26.9927H15.1071C15.2839 26.9927 15.4286 26.848 15.4286 26.6712V4.17122C15.4286 3.99444 15.2839 3.84979 15.1071 3.84979H13.1786C13.0018 3.84979 12.8571 3.99444 12.8571 4.17122V26.6712C12.8571 26.848 13.0018 26.9927 13.1786 26.9927ZM10.0045 29.5641H5.50446C5.32768 29.5641 5.18304 29.7087 5.18304 29.8855V31.8141C5.18304 31.9909 5.32768 32.1355 5.50446 32.1355H10.0045C10.1813 32.1355 10.3259 31.9909 10.3259 31.8141V29.8855C10.3259 29.7087 10.1813 29.5641 10.0045 29.5641ZM20.3304 29.5641H18.4018C18.225 29.5641 18.0804 29.7087 18.0804 29.8855V31.8141C18.0804 31.9909 18.225 32.1355 18.4018 32.1355H20.3304C20.5071 32.1355 20.6518 31.9909 20.6518 31.8141V29.8855C20.6518 29.7087 20.5071 29.5641 20.3304 29.5641ZM30.6161 29.5641H23.4643C23.2875 29.5641 23.1429 29.7087 23.1429 29.8855V31.8141C23.1429 31.9909 23.2875 32.1355 23.4643 32.1355H30.6161C30.7929 32.1355 30.9375 31.9909 30.9375 31.8141V29.8855C30.9375 29.7087 30.7929 29.5641 30.6161 29.5641ZM15.1473 29.5641H13.2188C13.042 29.5641 12.8973 29.7087 12.8973 29.8855V31.8141C12.8973 31.9909 13.042 32.1355 13.2188 32.1355H15.1473C15.3241 32.1355 15.4688 31.9909 15.4688 31.8141V29.8855C15.4688 29.7087 15.3241 29.5641 15.1473 29.5641Z" fill="black" fill-opacity="0.85"/>
</g>
<defs>
<clipPath id="clip0_1_5090">
<rect width="36" height="36" fill="white"/>
</clipPath>
</defs>
</svg>
