<svg width="38" height="38" viewBox="0 0 38 38" fill="none" xmlns="http://www.w3.org/2000/svg">
<g clip-path="url(#clip0_1_5094)">
<path d="M15.7808 30.3307C16.0486 30.6945 16.4604 30.9236 16.9109 30.9592C16.9512 30.9623 16.9915 30.9639 17.0302 30.9639C17.4389 30.9639 17.8337 30.8029 18.1247 30.5103L27.0268 21.6082C27.6322 21.0028 27.6322 20.0244 27.0268 19.419C26.4215 18.8137 25.443 18.8137 24.8377 19.419L17.2113 27.0454L14.0205 22.695C13.5142 22.0061 12.5451 21.8559 11.8561 22.3621C11.1672 22.8684 11.017 23.8376 11.5232 24.5265L15.7808 30.3307Z" fill="black"/>
<path d="M32.512 4.64456H30.9638V1.54819C30.9638 0.693588 30.2702 0 29.4156 0H27.8674C27.0128 0 26.3192 0.693588 26.3192 1.54819V4.64456H10.8373V1.54819C10.8373 0.693588 10.1437 0 9.28913 0H7.74094C6.88634 0 6.19275 0.693588 6.19275 1.54819V4.64456H4.64456C2.08386 4.64456 0 6.72843 0 9.28913V32.512C0 35.0727 2.08386 37.1565 4.64456 37.1565H32.512C35.0727 37.1565 37.1565 35.0727 37.1565 32.512V9.28913C37.1565 6.72843 35.0727 4.64456 32.512 4.64456ZM34.0601 32.512C34.0601 33.365 33.365 34.0601 32.512 34.0601H4.64456C3.79151 34.0601 3.09638 33.365 3.09638 32.512V15.5438H34.0601V32.512Z" fill="black"/>
</g>
<defs>
<clipPath id="clip0_1_5094">
<rect width="37.1565" height="37.1565" fill="white"/>
</clipPath>
</defs>
</svg>
