<svg width="36" height="37" viewBox="0 0 36 37" fill="none" xmlns="http://www.w3.org/2000/svg">
<path d="M20.0807 18.398L30.6275 5.82608C30.8043 5.61715 30.6557 5.29974 30.3824 5.29974H27.1762C26.9874 5.29974 26.8066 5.38412 26.682 5.52876L17.9833 15.8989L9.28468 5.52876C9.16414 5.38412 8.98334 5.29974 8.79048 5.29974H5.58423C5.31102 5.29974 5.16236 5.61715 5.33914 5.82608L15.886 18.398L5.33914 30.9698C5.29954 31.0164 5.27414 31.0734 5.26594 31.1339C5.25775 31.1945 5.26711 31.2562 5.29291 31.3116C5.31872 31.367 5.35988 31.4139 5.41152 31.4466C5.46316 31.4793 5.5231 31.4965 5.58423 31.4962H8.79048C8.97932 31.4962 9.16013 31.4118 9.28468 31.2672L17.9833 20.8971L26.682 31.2672C26.8025 31.4118 26.9833 31.4962 27.1762 31.4962H30.3824C30.6557 31.4962 30.8043 31.1788 30.6275 30.9698L20.0807 18.398Z" fill="black" fill-opacity="0.85"/>
</svg>
