<svg width="38" height="38" viewBox="0 0 38 38" fill="none" xmlns="http://www.w3.org/2000/svg">
<g clip-path="url(#clip0_1_5098)">
<path d="M18.5781 0.156494C14.1294 0.156494 10.5113 3.77616 10.5113 8.22565C10.5113 12.6767 14.1302 16.2971 18.5781 16.2971C23.0261 16.2971 26.6457 12.6767 26.6457 8.22565C26.6457 3.77616 23.0261 0.156494 18.5781 0.156494Z" fill="black"/>
<path d="M24.8117 18.5747C25.0989 19.8172 25.5525 22.076 25.4016 23.3857C26.5883 24.4377 29.7017 27.5387 29.0243 30.5987C29.0197 30.6351 28.6992 32.3946 26.5163 33.1416C26.4334 33.1703 26.3483 33.1842 26.2655 33.1842C25.9434 33.1842 25.6439 32.9814 25.5339 32.6594C25.3946 32.2545 25.6113 31.8141 26.0162 31.6763C27.3151 31.2319 27.504 30.3108 27.5071 30.3023C27.97 28.2037 25.6477 25.6561 24.3565 24.5236C22.8114 25.2737 19.89 27.1138 19.777 29.2208C19.7724 29.2859 19.7244 30.2187 20.8414 30.9788C21.1951 31.2196 21.2873 31.7018 21.0457 32.0556C20.8963 32.2746 20.6525 32.3946 20.4063 32.3946C20.2554 32.3946 20.1037 32.3505 19.9705 32.2599C18.0608 30.961 18.2257 29.1744 18.2327 29.0985C18.4084 25.828 22.6829 23.5994 23.8758 23.0389C23.947 21.8778 23.4648 19.4796 23.1095 18.125C23.0986 18.0824 23.1064 18.0414 23.1017 17.9988C21.9754 17.6923 20.7949 17.5142 19.5711 17.5142H17.584C16.2138 17.5142 14.8917 17.7232 13.6446 18.1049C13.6315 18.1598 13.6284 18.2171 13.6013 18.2705C13.5842 18.3053 11.9083 21.7841 11.1071 27.1045C12.4533 27.476 13.4503 28.6983 13.4503 30.1598C13.4503 31.9139 12.0229 33.3406 10.2696 33.3406C8.5147 33.3406 7.08727 31.9131 7.08727 30.1598C7.08727 28.6558 8.14081 27.3979 9.54734 27.0696C10.0915 23.3215 11.0406 20.4674 11.6475 18.9099C7.18249 21.1114 4.0954 25.6995 4.0954 31.0067V36.5391C4.0954 36.9672 4.44142 37.3132 4.86949 37.3132H32.2895C32.7175 37.3132 33.0636 36.9564 33.0636 36.5283V31.0067C33.062 25.4255 29.656 20.6245 24.8117 18.5747Z" fill="black"/>
</g>
<defs>
<clipPath id="clip0_1_5098">
<rect width="37.1565" height="37.1565" fill="white" transform="translate(0 0.156494)"/>
</clipPath>
</defs>
</svg>
