<svg width="36" height="37" viewBox="0 0 36 37" fill="none" xmlns="http://www.w3.org/2000/svg">
<path d="M7.78212 28.039C7.86248 28.039 7.94283 28.0309 8.02319 28.0189L14.7812 26.8336C14.8616 26.8175 14.9379 26.7814 14.9942 26.7211L32.0259 9.68941C32.0631 9.65224 32.0927 9.60809 32.1128 9.55948C32.133 9.51088 32.1434 9.45877 32.1434 9.40615C32.1434 9.35353 32.133 9.30142 32.1128 9.25282C32.0927 9.20421 32.0631 9.16006 32.0259 9.12289L25.3482 2.44119C25.2719 2.36486 25.1714 2.32468 25.0629 2.32468C24.9544 2.32468 24.854 2.36486 24.7777 2.44119L7.74596 19.4729C7.68569 19.5332 7.64953 19.6055 7.63346 19.6858L6.44819 26.4439C6.4091 26.6591 6.42307 26.8806 6.48888 27.0893C6.55469 27.2979 6.67036 27.4873 6.82587 27.6412C7.09105 27.8983 7.42453 28.039 7.78212 28.039ZM10.4902 21.0318L25.0629 6.46307L28.008 9.40816L13.4352 23.9769L9.86337 24.6077L10.4902 21.0318ZM32.7852 31.414H3.21381C2.50265 31.414 1.9281 31.9885 1.9281 32.6997V34.1461C1.9281 34.3229 2.07274 34.4675 2.24953 34.4675H33.7495C33.9263 34.4675 34.071 34.3229 34.071 34.1461V32.6997C34.071 31.9885 33.4964 31.414 32.7852 31.414Z" fill="black" fill-opacity="0.85"/>
</svg>
