<svg width="36" height="37" viewBox="0 0 36 37" fill="none" xmlns="http://www.w3.org/2000/svg">
<g clip-path="url(#clip0_1_5122)">
<path d="M31.7643 9.65021L23.1178 1.00378C22.8768 0.762706 22.5513 0.626099 22.2098 0.626099H5.14195C4.43079 0.626099 3.85623 1.20065 3.85623 1.91181V35.3404C3.85623 36.0515 4.43079 36.6261 5.14195 36.6261H30.8562C31.5674 36.6261 32.1419 36.0515 32.1419 35.3404V10.5623C32.1419 10.2207 32.0053 9.89128 31.7643 9.65021ZM29.1768 11.1529H21.6152V3.59128L29.1768 11.1529ZM29.2491 33.7332H6.74909V3.51896H18.883V12.1975C18.883 12.6451 19.0608 13.0743 19.3773 13.3908C19.6937 13.7072 20.123 13.885 20.5705 13.885H29.2491V33.7332ZM18.0835 21.3623L15.6004 17.248C15.512 17.1033 15.3553 17.0149 15.1866 17.0149H13.6437C13.5513 17.0149 13.4629 17.039 13.3866 17.0913C13.1616 17.2319 13.0933 17.5292 13.2379 17.7582L16.5446 22.9975L13.1937 28.3332C13.1482 28.4064 13.1231 28.4904 13.1209 28.5766C13.1187 28.6628 13.1396 28.7479 13.1814 28.8233C13.2232 28.8987 13.2843 28.9615 13.3586 29.0054C13.4328 29.0492 13.5174 29.0724 13.6036 29.0725H14.9897C15.1585 29.0725 15.3111 28.9841 15.3995 28.8435L17.9187 24.7654L20.4219 28.8395C20.5103 28.9841 20.6669 29.0685 20.8317 29.0685H22.3384C22.4308 29.0685 22.5192 29.0404 22.5995 28.9922C22.8245 28.8475 22.8888 28.5502 22.7442 28.3252L19.3692 23.0859L22.7964 17.7623C22.8428 17.6893 22.8688 17.6052 22.8717 17.5188C22.8746 17.4324 22.8542 17.3468 22.8128 17.2709C22.7714 17.195 22.7103 17.1316 22.6361 17.0873C22.5618 17.043 22.4771 17.0194 22.3906 17.019H20.9562C20.7875 17.019 20.6308 17.1073 20.5424 17.252L18.0835 21.3623Z" fill="black" fill-opacity="0.85"/>
</g>
<defs>
<clipPath id="clip0_1_5122">
<rect width="36" height="36" fill="white" transform="translate(0 0.626099)"/>
</clipPath>
</defs>
</svg>
