<svg width="38" height="38" viewBox="0 0 38 38" fill="none" xmlns="http://www.w3.org/2000/svg">
<g clip-path="url(#clip0_1_5108)">
<path d="M2.17745 28.4662H10.9586V24.112H2.17745V13.2263H0.000305176V34.9977H2.17745V28.4662Z" fill="black"/>
<path d="M18.9953 14.1268L19.6672 14.7443L20.4218 14.1268C23.1979 11.7164 26.1986 9.80516 26.1986 6.8734C26.1986 4.61887 24.534 2.85306 22.4087 2.85306C21.2521 2.85306 20.3124 3.37296 19.6672 4.09244C19.0228 3.37296 18.1673 2.85306 17.0084 2.85306C14.8834 2.85306 13.1357 4.61887 13.1357 6.8734C13.1357 9.6878 15.9527 11.4811 18.9953 14.1268Z" fill="black"/>
<path d="M32.8024 28.4663H34.9795V34.9977H37.1567V24.112H32.8024V28.4663Z" fill="black"/>
<path d="M7.69286 21.9348H10.9586V18.6691C10.9586 16.8656 9.49638 15.4034 7.69286 15.4034C5.88935 15.4034 4.42715 16.8656 4.42715 18.6691C4.42715 20.4729 5.88935 21.9348 7.69286 21.9348Z" fill="black"/>
<path d="M30.6254 23.0231C30.6254 20.0171 28.1886 17.5803 25.1826 17.5803H13.1357V28.466H30.6254V23.0231Z" fill="black"/>
</g>
<defs>
<clipPath id="clip0_1_5108">
<rect width="37.1565" height="37.1565" fill="white" transform="translate(0 0.313049)"/>
</clipPath>
</defs>
</svg>
