<svg width="38" height="38" viewBox="0 0 38 38" fill="none" xmlns="http://www.w3.org/2000/svg">
<g clip-path="url(#clip0_1_5120)">
<path fill-rule="evenodd" clip-rule="evenodd" d="M18.5783 0.469604C28.8388 0.469604 37.1565 8.78737 37.1565 19.0479C37.1565 29.3084 28.8388 37.6261 18.5783 37.6261C8.31776 37.6261 0 29.3084 0 19.0479C0 8.78737 8.31776 0.469604 18.5783 0.469604ZM22.8759 7.61795C22.8758 7.61788 22.8758 7.61788 22.8758 7.61788H14.2808C14.2807 7.61795 14.2807 7.61795 14.2807 7.61802V14.7503L7.1482 14.7504V14.7506L7.14828 23.3453H7.14849H14.2807L14.2808 30.4778L14.2809 30.4778H22.876V23.3454L30.0085 23.3453L30.0084 14.7503H22.8759L22.8759 7.61795Z" fill="black"/>
</g>
<defs>
<clipPath id="clip0_1_5120">
<rect width="37.1565" height="37.1565" fill="white" transform="translate(0 0.469604)"/>
</clipPath>
</defs>
</svg>
