<svg width="41" height="42" viewBox="0 0 41 42" fill="none" xmlns="http://www.w3.org/2000/svg">
<path d="M38.6945 36.491L26.8109 24.6074C28.655 22.2234 29.6525 19.3085 29.6525 16.2427C29.6525 12.5728 28.2202 9.13176 25.6303 6.53722C23.0403 3.94269 19.5901 2.51501 15.9248 2.51501C12.2595 2.51501 8.80931 3.94727 6.21935 6.53722C3.62482 9.12718 2.19714 12.5728 2.19714 16.2427C2.19714 19.908 3.6294 23.3582 6.21935 25.9482C8.80931 28.5427 12.255 29.9704 15.9248 29.9704C18.9907 29.9704 21.9009 28.9728 24.285 27.1333L36.1686 39.0123C36.2034 39.0472 36.2448 39.0749 36.2903 39.0937C36.3359 39.1126 36.3847 39.1223 36.434 39.1223C36.4833 39.1223 36.5321 39.1126 36.5776 39.0937C36.6232 39.0749 36.6645 39.0472 36.6994 39.0123L38.6945 37.0218C38.7293 36.987 38.757 36.9456 38.7759 36.9001C38.7947 36.8545 38.8044 36.8057 38.8044 36.7564C38.8044 36.7071 38.7947 36.6583 38.7759 36.6128C38.757 36.5672 38.7293 36.5259 38.6945 36.491ZM23.173 23.4909C21.2329 25.4265 18.6612 26.4927 15.9248 26.4927C13.1884 26.4927 10.6168 25.4265 8.67661 23.4909C6.74101 21.5507 5.67482 18.9791 5.67482 16.2427C5.67482 13.5063 6.74101 10.9301 8.67661 8.99448C10.6168 7.05888 13.1884 5.99269 15.9248 5.99269C18.6612 5.99269 21.2374 7.0543 23.173 8.99448C25.1086 10.9347 26.1748 13.5063 26.1748 16.2427C26.1748 18.9791 25.1086 21.5553 23.173 23.4909Z" fill="black" fill-opacity="0.85"/>
</svg>
