<svg width="38" height="38" viewBox="0 0 38 38" fill="none" xmlns="http://www.w3.org/2000/svg">
<g clip-path="url(#clip0_1_5126)">
<path d="M4.6936 11.2581C2.01136 14.2732 0.251215 18.1609 0.000335693 22.4426H4.40977C4.64628 19.3592 5.86932 16.5527 7.77127 14.3357L4.6936 11.2581Z" fill="black"/>
<path d="M18.0925 24.7333C17.7215 24.9207 17.4898 25.294 17.4898 25.7081C17.4909 26.6224 18.7804 27.1188 19.3906 26.4331L23.1953 22.1799L18.0925 24.7333Z" fill="black"/>
<path d="M6.23267 9.71876L9.31034 12.7964C11.5273 10.8945 14.4064 9.67145 17.4898 9.43494V5.08066C13.2081 5.33146 9.24786 7.03653 6.23267 9.71876Z" fill="black"/>
<path d="M19.667 5.08066V9.43494C22.7504 9.67145 25.6295 10.8945 27.8464 12.7964L30.9241 9.71876C27.9089 7.03653 23.9487 5.33146 19.667 5.08066Z" fill="black"/>
<path d="M32.4633 11.2581L29.3856 14.3357C31.2876 16.5526 32.5106 19.3592 32.7471 22.4426H37.1566C36.9057 18.1609 35.1455 14.2732 32.4633 11.2581Z" fill="black"/>
<path d="M32.7105 24.6198C32.6156 25.8543 32.4099 27.0749 31.9967 28.2469C31.797 28.8112 31.1811 29.1118 30.6084 28.9124C30.0407 28.7125 29.743 28.0907 29.9429 27.524C30.3957 26.2388 30.6254 24.8961 30.6254 23.5311C30.6254 20.2301 29.2827 17.2368 27.1147 15.0685C27.1146 15.0684 27.1142 15.0682 27.1142 15.0682C27.1142 15.0682 27.1139 15.0676 27.1137 15.0674C24.9455 12.8995 21.8796 11.557 18.5786 11.557C15.2775 11.557 12.2117 12.8996 10.0434 15.0676C10.0433 15.0677 10.0431 15.0681 10.0431 15.0681C10.0431 15.0681 10.0425 15.0685 10.0423 15.0686C7.8744 17.2368 6.53175 20.2302 6.53175 23.5312C6.53175 24.8962 6.76137 26.2389 7.21422 27.5241C7.41408 28.0907 7.11639 28.7126 6.54874 28.9125C5.98638 29.1112 5.36132 28.8136 5.16037 28.247C4.74723 27.075 4.54156 25.8544 4.44664 24.6199H0.000335693C0.156074 27.2783 0.84942 29.5284 1.82238 31.5478C2.3433 32.6289 3.4871 33.3284 4.7362 33.3284H32.4198C33.67 33.3284 34.8138 32.6289 35.3358 31.5467C36.2966 29.547 37.0072 27.1739 37.1569 24.6199H32.7105V24.6198ZM28.6949 19.3789L21.013 27.8855C19.0354 30.0975 15.3129 28.7136 15.3129 25.7084C15.3129 24.4657 16.0041 23.3472 17.1154 22.7888C17.1169 22.7882 17.1175 22.7867 17.119 22.7861L27.3969 17.6791C27.4004 17.6774 27.4042 17.678 27.4078 17.6762C28.4606 17.163 29.497 18.4565 28.6949 19.3789Z" fill="black"/>
</g>
<defs>
<clipPath id="clip0_1_5126">
<rect width="37.1565" height="37.1565" fill="white" transform="translate(0 0.626099)"/>
</clipPath>
</defs>
</svg>
