<svg width="35" height="35" viewBox="0 0 35 35" fill="none" xmlns="http://www.w3.org/2000/svg">
<g clip-path="url(#clip0_1_5157)">
<path d="M31.7379 28.5071H26.3193C22.9046 28.5071 20.1265 25.729 20.1265 22.3144C20.1265 18.8998 22.9046 16.1217 26.3193 16.1217H31.7379C32.1658 16.1217 32.5121 15.7755 32.5121 15.3476V13.0253C32.5121 11.402 31.2529 10.0819 29.6621 9.95385L25.2164 2.18872C24.8044 1.47055 24.1391 0.957255 23.3431 0.744113C22.5508 0.532422 21.7224 0.643601 21.0133 1.05631L5.77308 9.92889H3.09643C1.38876 9.92889 3.05176e-05 11.3175 3.05176e-05 13.0253V31.6035C3.05176e-05 33.3112 1.38868 34.7 3.09643 34.7H29.4157C31.1233 34.7 32.5121 33.3113 32.5121 31.6035V29.2813C32.5121 28.8534 32.1658 28.5071 31.7379 28.5071ZM26.1764 6.98278L27.8631 9.92889H21.1161L26.1764 6.98278ZM8.8501 9.92889L21.7926 2.39431C22.1426 2.18944 22.5516 2.13501 22.9424 2.23937C23.3378 2.34518 23.6674 2.60071 23.8723 2.95826L23.8739 2.96109L11.9062 9.92889H8.8501Z" fill="black"/>
<path d="M31.738 17.6701H26.3193C23.7581 17.6701 21.6747 19.7535 21.6747 22.3146C21.6747 24.8758 23.7581 26.9592 26.3193 26.9592H31.738C33.0186 26.9592 34.0602 25.9175 34.0602 24.6369V19.9924C34.0602 18.7118 33.0186 17.6701 31.738 17.6701ZM26.3193 23.8628C25.4658 23.8628 24.7711 23.1681 24.7711 22.3146C24.7711 21.4612 25.4658 20.7665 26.3193 20.7665C27.1727 20.7665 27.8674 21.4612 27.8674 22.3146C27.8675 23.1681 27.1728 23.8628 26.3193 23.8628Z" fill="black"/>
</g>
<defs>
<clipPath id="clip0_1_5157">
<rect width="34.0607" height="34.0607" fill="white" transform="translate(0 0.63916)"/>
</clipPath>
</defs>
</svg>
