<svg width="40" height="41" viewBox="0 0 40 41" fill="none" xmlns="http://www.w3.org/2000/svg">
<g clip-path="url(#clip0_1_5118)">
<path d="M33.5714 31.8928H32.5V16.7142C32.5 10.4151 27.8438 5.20971 21.7857 4.34364V2.60703C21.7857 1.62043 20.9866 0.82132 20 0.82132C19.0134 0.82132 18.2143 1.62043 18.2143 2.60703V4.34364C12.1563 5.20971 7.5 10.4151 7.5 16.7142V31.8928H6.42857C5.63839 31.8928 5 32.5311 5 33.3213V34.7499C5 34.9463 5.16071 35.107 5.35714 35.107H15C15 37.866 17.2411 40.107 20 40.107C22.7589 40.107 25 37.866 25 35.107H34.6429C34.8393 35.107 35 34.9463 35 34.7499V33.3213C35 32.5311 34.3616 31.8928 33.5714 31.8928ZM20 37.2499C18.817 37.2499 17.8571 36.2901 17.8571 35.107H22.1429C22.1429 36.2901 21.183 37.2499 20 37.2499ZM10.7143 31.8928V16.7142C10.7143 14.232 11.6786 11.9017 13.433 10.1472C15.1875 8.39275 17.5179 7.42846 20 7.42846C22.4821 7.42846 24.8125 8.39275 26.567 10.1472C28.3214 11.9017 29.2857 14.232 29.2857 16.7142V31.8928H10.7143Z" fill="black" fill-opacity="0.85"/>
</g>
<defs>
<clipPath id="clip0_1_5118">
<rect width="40" height="40" fill="white" transform="translate(0 0.469604)"/>
</clipPath>
</defs>
</svg>
