<svg width="41" height="42" viewBox="0 0 41 42" fill="none" xmlns="http://www.w3.org/2000/svg">
<path d="M34.536 32.618C33.7102 30.1604 30.4191 28.6221 28.0727 27.591C27.1535 27.1883 24.6086 26.5053 24.3028 25.3478C24.1933 24.9309 24.2081 24.5377 24.2978 24.1609C24.1564 24.188 24.0129 24.2039 23.8645 24.2039H22.3356C21.115 24.2039 20.1232 23.2109 20.1232 21.9912C20.1232 20.7722 21.1154 19.7813 22.3356 19.7813H23.8645C24.3696 19.7813 24.8485 19.9522 25.2347 20.2573C25.8009 20.1818 26.347 20.0609 26.8562 19.9022C27.525 18.5013 28.0465 16.826 28.1633 15.384C28.6623 9.21435 24.88 5.60471 19.457 6.22873C15.514 6.6826 13.1586 9.62271 12.9039 13.4078C12.6465 17.2659 14.077 20.1154 15.5964 22.2056C16.2618 23.1195 16.9609 23.707 16.8535 24.8083C16.7288 26.1104 15.3365 26.4733 14.3406 26.8735C13.1606 27.3474 11.8896 28.0666 11.2894 28.3991C9.22173 29.5409 6.95238 30.9161 6.44234 32.7971C5.31279 36.966 9.12743 38.2288 12.2766 38.8118C14.9794 39.3104 18.0269 39.3498 20.5336 39.3498C25.0678 39.3498 33.2211 39.1681 34.536 35.7598C34.9099 34.7926 34.7496 33.2514 34.536 32.618Z" fill="black"/>
<path d="M24.832 21.3685C24.6246 21.0523 24.2699 20.8424 23.8652 20.8424H22.3363C21.6984 20.8424 21.1838 21.3578 21.1838 21.9925C21.1838 22.6296 21.6984 23.1458 22.3363 23.1458H23.8652C24.3117 23.1458 24.6906 22.8912 24.8816 22.523C27.0132 22.3553 28.8672 21.7042 30.1686 20.7428C30.4675 20.9355 30.8209 21.0482 31.2022 21.0482H31.2981C32.3608 21.0482 33.2202 20.1881 33.2202 19.1241V15.2832C33.2202 14.5182 32.7717 13.8581 32.1247 13.5514C31.8426 7.38377 26.7369 2.44983 20.5 2.44983C14.263 2.44983 9.15649 7.38377 8.87564 13.5514C8.22743 13.8585 7.7793 14.5182 7.7793 15.2832V19.1241C7.7793 20.1881 8.63948 21.0482 9.69974 21.0482H9.79691C10.858 21.0482 11.7186 20.1881 11.7186 19.1241V15.2832C11.7186 14.5292 11.2827 13.879 10.6493 13.5645C10.9236 8.36777 15.236 4.22554 20.5 4.22554C25.7619 4.22554 30.0763 8.36777 30.3494 13.5645C29.7168 13.8794 29.2813 14.5292 29.2813 15.2832V19.1241C29.2813 19.3791 29.3309 19.6165 29.4183 19.8383C28.2982 20.6399 26.6676 21.211 24.832 21.3685Z" fill="black"/>
</svg>
