<svg width="36" height="37" viewBox="0 0 36 37" fill="none" xmlns="http://www.w3.org/2000/svg">
<path d="M34.5857 13.4089C33.6822 11.2703 32.3722 9.3272 30.7286 7.68749C29.0889 6.04382 27.1458 4.7339 25.0071 3.83035C22.7853 2.89017 20.4308 2.41606 18 2.41606C15.5692 2.41606 13.2147 2.89017 10.9929 3.83035C8.85419 4.7339 6.91114 6.04382 5.27143 7.68749C3.62776 9.3272 2.31784 11.2703 1.41429 13.4089C0.474107 15.6308 0 17.9853 0 20.4161C0 25.7478 2.34241 30.7701 6.42455 34.2013L6.49286 34.2576C6.72589 34.4504 7.0192 34.5589 7.32054 34.5589H28.6835C28.9848 34.5589 29.2781 34.4504 29.5112 34.2576L29.5795 34.2013C33.6576 30.7701 36 25.7478 36 20.4161C36 17.9853 35.5219 15.6308 34.5857 13.4089ZM28.0205 31.5054H7.97946C6.42695 30.1055 5.18612 28.3949 4.3375 26.4844C3.48889 24.574 3.05145 22.5065 3.05357 20.4161C3.05357 16.4223 4.60848 12.6696 7.43304 9.8491C10.2576 7.02454 14.0103 5.46963 18 5.46963C21.9937 5.46963 25.7464 7.02454 28.567 9.8491C31.3915 12.6737 32.9464 16.4263 32.9464 20.4161C32.9464 24.6589 31.1585 28.6728 28.0205 31.5054ZM22.4799 14.8513C22.4195 14.7915 22.3379 14.758 22.2529 14.758C22.1679 14.758 22.0863 14.7915 22.0259 14.8513L18.6308 18.2464C17.8795 18.0455 17.0478 18.2384 16.4571 18.829C16.2479 19.0378 16.082 19.2858 15.9687 19.5588C15.8555 19.8318 15.7972 20.1245 15.7972 20.4201C15.7972 20.7156 15.8555 21.0083 15.9687 21.2813C16.082 21.5543 16.2479 21.8024 16.4571 22.0112C16.6659 22.2203 16.9139 22.3863 17.187 22.4996C17.46 22.6128 17.7526 22.6711 18.0482 22.6711C18.3438 22.6711 18.6364 22.6128 18.9095 22.4996C19.1825 22.3863 19.4305 22.2203 19.6393 22.0112C19.9191 21.7322 20.1203 21.3843 20.2226 21.0026C20.3249 20.6209 20.3247 20.219 20.2219 19.8375L23.617 16.4424C23.7415 16.3178 23.7415 16.1129 23.617 15.9884L22.4799 14.8513ZM17.1161 10.7732H18.8839C19.0607 10.7732 19.2054 10.6286 19.2054 10.4518V7.23749C19.2054 7.0607 19.0607 6.91606 18.8839 6.91606H17.1161C16.9393 6.91606 16.7946 7.0607 16.7946 7.23749V10.4518C16.7946 10.6286 16.9393 10.7732 17.1161 10.7732ZM27.5625 19.5321V21.3C27.5625 21.4768 27.7071 21.6214 27.8839 21.6214H31.0982C31.275 21.6214 31.4196 21.4768 31.4196 21.3V19.5321C31.4196 19.3553 31.275 19.2107 31.0982 19.2107H27.8839C27.7071 19.2107 27.5625 19.3553 27.5625 19.5321ZM28.0728 11.6089L26.8232 10.3594C26.7628 10.2995 26.6812 10.266 26.5962 10.266C26.5112 10.266 26.4296 10.2995 26.3692 10.3594L24.0951 12.6335C24.0353 12.6939 24.0017 12.7755 24.0017 12.8605C24.0017 12.9455 24.0353 13.0271 24.0951 13.0875L25.3446 14.337C25.4692 14.4616 25.6741 14.4616 25.7987 14.337L28.0728 12.0629C28.1973 11.9384 28.1973 11.7335 28.0728 11.6089ZM9.64688 10.3594C9.58646 10.2995 9.50488 10.266 9.41987 10.266C9.33485 10.266 9.25327 10.2995 9.19286 10.3594L7.9433 11.6089C7.88349 11.6693 7.84993 11.7509 7.84993 11.8359C7.84993 11.9209 7.88349 12.0025 7.9433 12.0629L10.2174 14.337C10.342 14.4616 10.5469 14.4616 10.6714 14.337L11.921 13.0875C12.0455 12.9629 12.0455 12.758 11.921 12.6335L9.64688 10.3594ZM7.95536 19.2107H4.74107C4.56429 19.2107 4.41964 19.3553 4.41964 19.5321V21.3C4.41964 21.4768 4.56429 21.6214 4.74107 21.6214H7.95536C8.13214 21.6214 8.27679 21.4768 8.27679 21.3V19.5321C8.27679 19.3553 8.13214 19.2107 7.95536 19.2107Z" fill="black" fill-opacity="0.85"/>
</svg>
