<svg width="36" height="37" viewBox="0 0 36 37" fill="none" xmlns="http://www.w3.org/2000/svg">
<path d="M19.205 4.00717H16.7943C16.58 4.00717 16.4729 4.11431 16.4729 4.3286V16.9447H4.50063C4.28634 16.9447 4.1792 17.0518 4.1792 17.2661V19.6768C4.1792 19.8911 4.28634 19.9982 4.50063 19.9982H16.4729V32.6143C16.4729 32.8286 16.58 32.9357 16.7943 32.9357H19.205C19.4193 32.9357 19.5265 32.8286 19.5265 32.6143V19.9982H31.5006C31.7149 19.9982 31.8221 19.8911 31.8221 19.6768V17.2661C31.8221 17.0518 31.7149 16.9447 31.5006 16.9447H19.5265V4.3286C19.5265 4.11431 19.4193 4.00717 19.205 4.00717Z" fill="black" fill-opacity="0.85"/>
</svg>
