<svg width="36" height="37" viewBox="0 0 36 37" fill="none" xmlns="http://www.w3.org/2000/svg">
<path d="M30.375 15.3511H28.7679C28.5911 15.3511 28.4464 15.4958 28.4464 15.6725V17.2797C28.4464 17.4565 28.5911 17.6011 28.7679 17.6011H30.375C30.5518 17.6011 30.6964 17.4565 30.6964 17.2797V15.6725C30.6964 15.4958 30.5518 15.3511 30.375 15.3511ZM31.6607 11.1725H26.8393V2.65468C26.8393 2.47789 26.6946 2.33325 26.5179 2.33325H9.48214C9.30536 2.33325 9.16072 2.47789 9.16072 2.65468V11.1725H4.33929C2.56339 11.1725 1.125 12.6109 1.125 14.3868V27.5654C1.125 28.2766 1.69955 28.8511 2.41071 28.8511H9.16072V34.1547C9.16072 34.3315 9.30536 34.4761 9.48214 34.4761H26.5179C26.6946 34.4761 26.8393 34.3315 26.8393 34.1547V28.8511H33.5893C34.3004 28.8511 34.875 28.2766 34.875 27.5654V14.3868C34.875 12.6109 33.4366 11.1725 31.6607 11.1725ZM11.8929 5.0654H24.1071V11.1725H11.8929V5.0654ZM24.1071 31.744H11.8929V20.6547H24.1071V31.744ZM32.1429 26.119H26.8393V17.9225H9.16072V26.119H3.85714V14.3868C3.85714 14.1216 4.07411 13.9047 4.33929 13.9047H31.6607C31.9259 13.9047 32.1429 14.1216 32.1429 14.3868V26.119Z" fill="black" fill-opacity="0.85"/>
</svg>
