<svg width="36" height="37" viewBox="0 0 36 37" fill="none" xmlns="http://www.w3.org/2000/svg">
<path d="M33.9552 6.151L31.6892 7.92287C28.5994 3.97332 23.7941 1.43805 18.3981 1.43805C9.08069 1.43805 1.53917 8.97153 1.52711 18.293C1.51506 27.6224 9.07265 35.1881 18.3981 35.1881C25.6825 35.1881 31.8901 30.5675 34.2526 24.0947C34.3128 23.926 34.2244 23.7372 34.0557 23.6809L31.7776 22.8974C31.6981 22.8702 31.6112 22.8751 31.5354 22.9112C31.4595 22.9472 31.4008 23.0115 31.3718 23.0903C31.2994 23.2912 31.2191 23.4921 31.1347 23.6889C30.4396 25.3363 29.4432 26.8148 28.1735 28.0845C26.9141 29.3462 25.423 30.3531 23.782 31.0497C22.0825 31.7689 20.2704 32.1345 18.4061 32.1345C16.5378 32.1345 14.7298 31.7689 13.0302 31.0497C11.3876 30.356 9.89599 29.3488 8.63872 28.0845C7.37591 26.8252 6.37017 25.3323 5.67756 23.6889C4.95836 21.9854 4.59274 20.1773 4.59274 18.309C4.59274 16.4407 4.95836 14.6327 5.67756 12.9291C6.37265 11.2818 7.36908 9.80323 8.63872 8.53359C9.90836 7.26394 11.3869 6.26751 13.0302 5.56841C14.7298 4.84921 16.5418 4.48359 18.4061 4.48359C20.2744 4.48359 22.0825 4.84921 23.782 5.56841C25.4246 6.26207 26.9163 7.26924 28.1735 8.53359C28.5713 8.93135 28.945 9.35323 29.2905 9.79519L26.8718 11.6836C26.8239 11.7206 26.7875 11.7704 26.7666 11.8272C26.7458 11.884 26.7414 11.9455 26.754 12.0047C26.7666 12.0639 26.7957 12.1183 26.8378 12.1617C26.88 12.2051 26.9335 12.2358 26.9923 12.2501L34.0477 13.9778C34.2485 14.026 34.4454 13.8733 34.4454 13.6684L34.4776 6.4001C34.4735 6.13492 34.1642 5.98626 33.9552 6.151Z" fill="black" fill-opacity="0.85"/>
</svg>
