<svg width="38" height="38" viewBox="0 0 38 38" fill="none" xmlns="http://www.w3.org/2000/svg">
<g clip-path="url(#clip0_1_5151)">
<path d="M31.7137 22.3991C29.0854 22.3991 26.8867 24.2721 26.381 26.7534H19.6668V24.383C20.6382 24.0373 21.4024 23.2499 21.7036 22.2589C22.6947 21.9576 23.4823 21.1934 23.8279 20.2221H23.9871C26.7266 20.2221 29.1208 18.1725 29.46 15.4543L30.5485 6.60059C30.9551 3.34837 28.3427 0.482605 25.0756 0.482605H23.4768C22.8751 0.482605 22.352 0.969486 22.352 1.57117V3.74831C22.352 4.35 22.8751 4.83688 23.4768 4.83688C24.0785 4.83688 24.5291 4.35 24.5291 3.74831V2.65974H25.0756C27.0345 2.65974 28.6319 4.37874 28.3884 6.33047L27.2998 15.1842C27.0957 16.8149 25.6306 18.0449 23.9871 18.0449H23.8206C23.3697 16.7805 22.1727 15.8677 20.7554 15.8677H16.4011C14.9838 15.8677 13.7868 16.7805 13.3359 18.0449H13.1694C11.526 18.0449 10.1334 16.8149 9.92928 15.1842L8.84071 6.33047C8.59723 4.37874 10.122 2.65974 12.0809 2.65974H12.5548V3.74831C12.5548 4.35 13.0417 4.83688 13.6434 4.83688C14.2451 4.83688 14.732 4.35 14.732 3.74831V1.57117C14.732 0.969486 14.2451 0.482605 13.6434 0.482605H12.0809C8.81691 0.482605 6.27365 3.34569 6.68055 6.60051L7.76912 15.4542C8.10825 18.1724 10.4299 20.222 13.1694 20.222H13.3287C13.6744 21.1934 14.4618 21.9575 15.4528 22.2588C15.7541 23.2498 16.5182 24.0373 17.4896 24.3829V26.7534H5.44285C2.44181 26.7534 0 29.1952 0 32.1963C0 35.1973 2.44181 37.6391 5.44285 37.6391H14.224C17.225 37.6391 19.6668 35.1973 19.6668 32.1963V28.9306H26.381C26.8867 31.4118 29.0854 33.2848 31.7137 33.2848C34.7147 33.2848 37.1565 30.843 37.1565 27.842C37.1565 24.841 34.7147 22.3991 31.7137 22.3991ZM17.4897 32.1963C17.4897 33.9971 16.0248 35.462 14.224 35.462H5.44285C3.64206 35.462 2.17714 33.9971 2.17714 32.1963C2.17714 30.3955 3.64206 28.9306 5.44285 28.9306H17.4897V32.1963ZM31.7137 28.9306C31.1125 28.9306 30.6251 28.4432 30.6251 27.842C30.6251 27.2407 31.1125 26.7534 31.7137 26.7534C32.3148 26.7534 32.8022 27.2407 32.8022 27.842C32.8022 28.4432 32.3148 28.9306 31.7137 28.9306Z" fill="black"/>
</g>
<defs>
<clipPath id="clip0_1_5151">
<rect width="37.1565" height="37.1565" fill="white" transform="translate(0 0.482605)"/>
</clipPath>
</defs>
</svg>
